<mxfile host="app.diagrams.net" modified="2021-10-07T16:55:37.357Z" agent="5.0 (Macintosh)" etag="QDrFfA1iUDUXDB0TO3wK" version="15.4.3" type="github">
  <diagram id="KT7TZhTXX3F75whLfT0x" name="Page-1">
    <mxGraphModel dx="1426" dy="795" grid="1" gridSize="10" guides="1" tooltips="1" connect="1" arrows="1" fold="1" page="1" pageScale="1" pageWidth="850" pageHeight="1100" math="0" shadow="0">
      <root>
        <mxCell id="0" />
        <mxCell id="1" parent="0" />
        <mxCell id="IfeFI1Sg80yyJUzuPV6Q-30" value="" style="group" parent="1" vertex="1" connectable="0">
          <mxGeometry x="110" y="114.03" width="233.33000000000004" height="305.97" as="geometry" />
        </mxCell>
        <mxCell id="IfeFI1Sg80yyJUzuPV6Q-1" value="" style="fontColor=#0066CC;verticalAlign=top;verticalLabelPosition=bottom;labelPosition=center;align=center;html=1;outlineConnect=0;fillColor=#CCCCCC;strokeColor=#6881B3;gradientColor=none;gradientDirection=north;strokeWidth=2;shape=mxgraph.networks.switch;" parent="IfeFI1Sg80yyJUzuPV6Q-30" vertex="1">
          <mxGeometry y="115.97" width="233.33" height="70" as="geometry" />
        </mxCell>
        <mxCell id="IfeFI1Sg80yyJUzuPV6Q-3" value="" style="line;strokeWidth=2;html=1;direction=south;" parent="IfeFI1Sg80yyJUzuPV6Q-30" vertex="1">
          <mxGeometry x="30" y="185.97" width="5" height="60" as="geometry" />
        </mxCell>
        <mxCell id="IfeFI1Sg80yyJUzuPV6Q-5" value="" style="line;strokeWidth=2;html=1;direction=south;" parent="IfeFI1Sg80yyJUzuPV6Q-30" vertex="1">
          <mxGeometry x="40" y="185.97" width="5" height="60" as="geometry" />
        </mxCell>
        <mxCell id="IfeFI1Sg80yyJUzuPV6Q-6" value="" style="line;strokeWidth=2;html=1;direction=south;" parent="IfeFI1Sg80yyJUzuPV6Q-30" vertex="1">
          <mxGeometry x="50" y="185.97" width="5" height="60" as="geometry" />
        </mxCell>
        <mxCell id="IfeFI1Sg80yyJUzuPV6Q-7" value="" style="line;strokeWidth=2;html=1;direction=south;" parent="IfeFI1Sg80yyJUzuPV6Q-30" vertex="1">
          <mxGeometry x="190" y="185.97" width="3.75" height="60" as="geometry" />
        </mxCell>
        <mxCell id="IfeFI1Sg80yyJUzuPV6Q-8" value="" style="shape=curlyBracket;whiteSpace=wrap;html=1;rounded=1;strokeWidth=3;direction=north;" parent="IfeFI1Sg80yyJUzuPV6Q-30" vertex="1">
          <mxGeometry x="20" y="245.97" width="180" height="30" as="geometry" />
        </mxCell>
        <mxCell id="IfeFI1Sg80yyJUzuPV6Q-9" value="&lt;font style=&quot;font-size: 16px&quot;&gt;&lt;b&gt;48 x 10GbE&lt;/b&gt;&lt;/font&gt;" style="text;html=1;strokeColor=none;fillColor=none;align=center;verticalAlign=middle;whiteSpace=wrap;rounded=0;" parent="IfeFI1Sg80yyJUzuPV6Q-30" vertex="1">
          <mxGeometry x="60" y="275.97" width="100" height="30" as="geometry" />
        </mxCell>
        <mxCell id="IfeFI1Sg80yyJUzuPV6Q-11" value="" style="line;strokeWidth=2;html=1;direction=south;" parent="IfeFI1Sg80yyJUzuPV6Q-30" vertex="1">
          <mxGeometry x="109.16" y="55.97" width="5" height="60" as="geometry" />
        </mxCell>
        <mxCell id="IfeFI1Sg80yyJUzuPV6Q-12" value="" style="line;strokeWidth=2;html=1;direction=south;" parent="IfeFI1Sg80yyJUzuPV6Q-30" vertex="1">
          <mxGeometry x="119.16" y="55.97" width="5" height="60" as="geometry" />
        </mxCell>
        <mxCell id="IfeFI1Sg80yyJUzuPV6Q-13" value="" style="shape=curlyBracket;whiteSpace=wrap;html=1;rounded=1;strokeWidth=3;direction=south;size=0.5;" parent="IfeFI1Sg80yyJUzuPV6Q-30" vertex="1">
          <mxGeometry x="38.74000000000001" y="30" width="155.84" height="25.97" as="geometry" />
        </mxCell>
        <mxCell id="IfeFI1Sg80yyJUzuPV6Q-14" value="&lt;font style=&quot;font-size: 16px&quot;&gt;&lt;b&gt;2 x 100GbE&lt;/b&gt;&lt;/font&gt;" style="text;html=1;strokeColor=none;fillColor=none;align=center;verticalAlign=middle;whiteSpace=wrap;rounded=0;" parent="IfeFI1Sg80yyJUzuPV6Q-30" vertex="1">
          <mxGeometry x="66.65999999999997" width="100" height="30" as="geometry" />
        </mxCell>
        <mxCell id="IfeFI1Sg80yyJUzuPV6Q-17" value="" style="line;strokeWidth=3;html=1;fontSize=16;dashed=1;" parent="IfeFI1Sg80yyJUzuPV6Q-30" vertex="1">
          <mxGeometry x="69.99000000000001" y="212.73999999999998" width="103.34" height="6.46" as="geometry" />
        </mxCell>
        <mxCell id="IfeFI1Sg80yyJUzuPV6Q-46" value="" style="group" parent="1" vertex="1" connectable="0">
          <mxGeometry x="420" y="114.03" width="233.33000000000004" height="305.97" as="geometry" />
        </mxCell>
        <mxCell id="IfeFI1Sg80yyJUzuPV6Q-32" value="" style="fontColor=#0066CC;verticalAlign=top;verticalLabelPosition=bottom;labelPosition=center;align=center;html=1;outlineConnect=0;fillColor=#CCCCCC;strokeColor=#6881B3;gradientColor=none;gradientDirection=north;strokeWidth=2;shape=mxgraph.networks.switch;" parent="IfeFI1Sg80yyJUzuPV6Q-46" vertex="1">
          <mxGeometry y="115.97" width="233.33" height="70" as="geometry" />
        </mxCell>
        <mxCell id="IfeFI1Sg80yyJUzuPV6Q-33" value="" style="line;strokeWidth=2;html=1;direction=south;" parent="IfeFI1Sg80yyJUzuPV6Q-46" vertex="1">
          <mxGeometry x="30" y="185.97" width="5" height="60" as="geometry" />
        </mxCell>
        <mxCell id="IfeFI1Sg80yyJUzuPV6Q-34" value="" style="line;strokeWidth=2;html=1;direction=south;" parent="IfeFI1Sg80yyJUzuPV6Q-46" vertex="1">
          <mxGeometry x="40" y="185.97" width="5" height="60" as="geometry" />
        </mxCell>
        <mxCell id="IfeFI1Sg80yyJUzuPV6Q-35" value="" style="line;strokeWidth=2;html=1;direction=south;" parent="IfeFI1Sg80yyJUzuPV6Q-46" vertex="1">
          <mxGeometry x="50" y="185.97" width="5" height="60" as="geometry" />
        </mxCell>
        <mxCell id="IfeFI1Sg80yyJUzuPV6Q-36" value="" style="line;strokeWidth=2;html=1;direction=south;" parent="IfeFI1Sg80yyJUzuPV6Q-46" vertex="1">
          <mxGeometry x="190" y="185.97" width="3.75" height="60" as="geometry" />
        </mxCell>
        <mxCell id="IfeFI1Sg80yyJUzuPV6Q-37" value="" style="shape=curlyBracket;whiteSpace=wrap;html=1;rounded=1;strokeWidth=3;direction=north;" parent="IfeFI1Sg80yyJUzuPV6Q-46" vertex="1">
          <mxGeometry x="20" y="245.97" width="180" height="30" as="geometry" />
        </mxCell>
        <mxCell id="IfeFI1Sg80yyJUzuPV6Q-38" value="&lt;font style=&quot;font-size: 16px&quot;&gt;&lt;b&gt;20 x 10GbE&lt;/b&gt;&lt;/font&gt;" style="text;html=1;strokeColor=none;fillColor=none;align=center;verticalAlign=middle;whiteSpace=wrap;rounded=0;" parent="IfeFI1Sg80yyJUzuPV6Q-46" vertex="1">
          <mxGeometry x="60" y="275.97" width="100" height="30" as="geometry" />
        </mxCell>
        <mxCell id="IfeFI1Sg80yyJUzuPV6Q-39" value="" style="line;strokeWidth=2;html=1;direction=south;" parent="IfeFI1Sg80yyJUzuPV6Q-46" vertex="1">
          <mxGeometry x="109.15999999999997" y="55.97" width="5" height="60" as="geometry" />
        </mxCell>
        <mxCell id="IfeFI1Sg80yyJUzuPV6Q-40" value="" style="line;strokeWidth=2;html=1;direction=south;" parent="IfeFI1Sg80yyJUzuPV6Q-46" vertex="1">
          <mxGeometry x="119.15999999999997" y="55.97" width="5" height="60" as="geometry" />
        </mxCell>
        <mxCell id="IfeFI1Sg80yyJUzuPV6Q-41" value="" style="shape=curlyBracket;whiteSpace=wrap;html=1;rounded=1;strokeWidth=3;direction=south;size=0.5;" parent="IfeFI1Sg80yyJUzuPV6Q-46" vertex="1">
          <mxGeometry x="38.74000000000001" y="30" width="155.84" height="25.97" as="geometry" />
        </mxCell>
        <mxCell id="IfeFI1Sg80yyJUzuPV6Q-42" value="&lt;font style=&quot;font-size: 16px&quot;&gt;&lt;b&gt;4 x 40GbE&lt;/b&gt;&lt;/font&gt;" style="text;html=1;strokeColor=none;fillColor=none;align=center;verticalAlign=middle;whiteSpace=wrap;rounded=0;" parent="IfeFI1Sg80yyJUzuPV6Q-46" vertex="1">
          <mxGeometry x="66.65999999999997" width="100" height="30" as="geometry" />
        </mxCell>
        <mxCell id="IfeFI1Sg80yyJUzuPV6Q-43" value="" style="line;strokeWidth=3;html=1;fontSize=16;dashed=1;" parent="IfeFI1Sg80yyJUzuPV6Q-46" vertex="1">
          <mxGeometry x="69.99000000000001" y="212.73999999999998" width="103.34" height="6.46" as="geometry" />
        </mxCell>
        <mxCell id="IfeFI1Sg80yyJUzuPV6Q-44" value="" style="line;strokeWidth=2;html=1;direction=south;" parent="IfeFI1Sg80yyJUzuPV6Q-46" vertex="1">
          <mxGeometry x="129.15999999999997" y="55.97" width="5" height="60" as="geometry" />
        </mxCell>
        <mxCell id="IfeFI1Sg80yyJUzuPV6Q-45" value="" style="line;strokeWidth=2;html=1;direction=south;" parent="IfeFI1Sg80yyJUzuPV6Q-46" vertex="1">
          <mxGeometry x="100" y="55.97" width="5" height="60" as="geometry" />
        </mxCell>
      </root>
    </mxGraphModel>
  </diagram>
</mxfile>
